<?xml version="1.0" encoding="utf-8"?>
<!-- Generator: Adobe Illustrator 12.0.0, SVG Export Plug-In . SVG Version: 6.00 Build 51448)  -->
<!DOCTYPE svg PUBLIC "-//W3C//DTD SVG 1.1//EN" "http://www.w3.org/Graphics/SVG/1.1/DTD/svg11.dtd" [
	<!ENTITY ns_svg "http://www.w3.org/2000/svg">
	<!ENTITY ns_xlink "http://www.w3.org/1999/xlink">
]>
<svg  version="1.1" id="Layer_1" xmlns="&ns_svg;" xmlns:xlink="&ns_xlink;" width="150" height="75" viewBox="0 0 150 75"
	 overflow="visible" enable-background="new 0 0 150 75" xml:space="preserve">
<path fill="#fff" d="M140.673,0H59.842c-5.152,0-9.327,4.197-9.327,9.375v56.25c0,5.178,4.175,9.375,9.327,9.375h80.831
	c5.151,0,9.327-4.197,9.327-9.375V9.375C150,4.197,145.825,0,140.673,0z M72.278,10.938c6.01,0,10.881,4.897,10.881,10.938
	s-4.871,10.938-10.881,10.938s-10.883-4.897-10.883-10.938S66.268,10.938,72.278,10.938z M137.565,62.5H62.951v-9.375l13.896-13.967
	c0.91-0.916,2.387-0.916,3.297,0L90.93,50l26.332-26.467c0.91-0.915,2.387-0.915,3.297,0l17.006,17.092V62.5z M38.966,34.148H24.403
	V19.416c0-1.65-1.342-3-2.984-3h-0.887c-1.641,0-2.984,1.35-2.984,3v14.732H2.985c-1.641,0-2.984,1.35-2.984,3v0.796
	c0,1.651,1.344,3,2.984,3h14.564v14.639c0,1.65,1.342,3,2.984,3h0.886c1.642,0,2.984-1.35,2.984-3V40.945h14.563
	c1.643,0,2.984-1.35,2.984-3v-0.796C41.951,35.498,40.608,34.148,38.966,34.148z"/>
</svg>
