<?xml version="1.0" encoding="utf-8"?>
<!-- Generator: Adobe Illustrator 12.0.0, SVG Export Plug-In . SVG Version: 6.00 Build 51448)  -->
<!DOCTYPE svg PUBLIC "-//W3C//DTD SVG 1.1//EN" "http://www.w3.org/Graphics/SVG/1.1/DTD/svg11.dtd" [
	<!ENTITY ns_svg "http://www.w3.org/2000/svg">
	<!ENTITY ns_xlink "http://www.w3.org/1999/xlink">
]>
<svg  version="1.1" id="Layer_1" xmlns="&ns_svg;" xmlns:xlink="&ns_xlink;" width="340.937" height="109.918"
	 viewBox="0 0 340.937 109.918" overflow="visible" enable-background="new 0 0 340.937 109.918" xml:space="preserve">
<path fill="#fff" d="M54.958,0C24.606,0,0,24.606,0,54.959c0,30.352,24.606,54.959,54.958,54.959
	c30.353,0,54.959-24.607,54.959-54.959C109.917,24.606,85.312,0,54.958,0z M34.538,81.338H24.41
	c-0.043-0.699-0.067-1.41-0.067-2.129c0-7.178,2.238-13.465,5.593-16.971c-1.25-1.434-2.009-3.305-2.009-5.357
	c0-4.5,3.65-8.15,8.152-8.15c2.41,0,4.575,1.045,6.067,2.709C40.057,54.178,38.3,57.584,37,61.446
	c-0.828,2.459-1.468,5.09-1.9,7.814c-0.444,2.801-0.669,5.705-0.669,8.633C34.431,79.022,34.467,80.182,34.538,81.338z
	 M73.839,81.338h-37.76c-0.071-1.133-0.109-2.281-0.109-3.445c0-11.611,3.621-21.787,9.05-27.459
	c-2.023-2.318-3.251-5.348-3.251-8.666c0-7.283,5.906-13.189,13.19-13.189s13.19,5.906,13.19,13.189
	c0,3.318-1.228,6.348-3.251,8.666c5.429,5.672,9.05,15.848,9.05,27.459C73.948,79.057,73.909,80.206,73.839,81.338z M85.507,81.338
	H75.379c0.071-1.156,0.107-2.316,0.107-3.445c0-2.928-0.225-5.832-0.669-8.633c-0.433-2.725-1.071-5.355-1.9-7.814
	c-1.3-3.861-3.057-7.27-5.146-10.006c1.493-1.664,3.658-2.709,6.067-2.709c4.502,0,8.152,3.65,8.152,8.15
	c0,2.053-0.759,3.924-2.009,5.357c3.355,3.506,5.593,9.793,5.593,16.971C85.575,79.928,85.551,80.639,85.507,81.338z M137.725,54.71
	c0.241-0.903,0.361-1.836,0.361-2.8c0-0.963-0.166-1.844-0.497-2.641c-0.331-0.799-0.851-1.453-1.558-1.965
	s-1.618-0.768-2.732-0.768c-0.753,0-1.536,0.135-2.348,0.406c-0.813,0.271-1.536,0.647-2.167,1.129l0.181,0.316
	c0.512-0.15,0.888,0.029,1.129,0.541c0.12,0.242,0.188,0.558,0.203,0.949c0.015,0.391,0.008,0.797-0.022,1.219
	s-0.075,0.836-0.135,1.242c-0.061,0.406-0.136,0.745-0.226,1.016l-0.993,3.567h-5.193l-0.587,2.344h5.103l-2.122,7.681
	c-0.241,0.873-0.361,1.792-0.361,2.756s0.166,1.845,0.497,2.643c0.331,0.799,0.843,1.453,1.536,1.965
	c0.692,0.513,1.61,0.769,2.754,0.769c0.752,0.03,1.535-0.091,2.348-0.361c0.813-0.271,1.535-0.647,2.167-1.13l-0.181-0.361
	c-0.512,0.15-0.888-0.029-1.129-0.542c-0.121-0.241-0.188-0.55-0.203-0.926c-0.015-0.376-0.008-0.775,0.022-1.197
	s0.075-0.836,0.136-1.243c0.06-0.406,0.135-0.744,0.226-1.016l2.529-9.036h6.954l0.542-2.344h-6.819L137.725,54.71z M340.351,67.27
	c-0.121,0.391-0.316,0.873-0.588,1.444c-0.271,0.572-0.595,1.099-0.971,1.58c-0.377,0.481-0.806,0.865-1.287,1.151
	s-0.993,0.354-1.535,0.203c-0.422-0.12-0.791-0.496-1.106-1.129c-0.316-0.631-0.685-1.331-1.106-2.099s-0.955-1.497-1.604-2.189
	c-0.646-0.692-1.527-1.159-2.641-1.399c0.843,0,1.82-0.158,2.935-0.475c1.114-0.315,2.152-0.768,3.116-1.354
	c0.963-0.588,1.738-1.316,2.325-2.189s0.761-1.866,0.52-2.98c-0.241-1.083-0.769-1.865-1.581-2.348
	c-0.813-0.48-1.716-0.842-2.709-1.084c-0.633-0.119-1.31-0.165-2.032-0.135s-1.468,0.181-2.235,0.451
	c-0.768,0.271-1.512,0.67-2.234,1.197c-0.723,0.526-1.4,1.227-2.032,2.1l2.664-9.797c0.241-0.902,0.354-1.836,0.339-2.799
	c-0.016-0.963-0.188-1.843-0.52-2.641s-0.851-1.452-1.559-1.964c-0.707-0.512-1.617-0.768-2.73-0.768
	c-0.754,0-1.536,0.136-2.349,0.406c-0.813,0.271-1.536,0.632-2.167,1.083l0.18,0.361c0.542-0.12,0.918,0.061,1.129,0.542
	c0.12,0.241,0.188,0.558,0.203,0.948s0.008,0.797-0.022,1.219s-0.075,0.828-0.136,1.219c-0.061,0.392-0.135,0.723-0.225,0.993
	l-5.735,21.353c-0.331,1.324-0.452,2.424-0.362,3.296c0.092,0.873,0.348,1.573,0.769,2.099c0.421,0.527,0.993,0.904,1.716,1.129
	c0.723,0.227,1.535,0.354,2.438,0.384c0.571,0.03,1.144,0.022,1.716-0.021c0.572-0.045,1.174-0.11,1.807-0.198l0.18-0.723
	c-0.632-0.692-0.934-1.393-0.902-2.101c0.029-0.708,0.12-1.318,0.271-1.83l1.129-4.292c0.902,0.512,1.602,1.084,2.1,1.716
	c0.496,0.632,0.91,1.294,1.241,1.986s0.625,1.361,0.881,2.009s0.595,1.226,1.016,1.737s0.971,0.926,1.648,1.242
	c0.677,0.316,1.603,0.474,2.776,0.474c0.934,0,1.799-0.12,2.598-0.36c0.797-0.241,1.527-0.662,2.189-1.265
	c0.662-0.602,1.25-1.392,1.762-2.37s0.947-2.22,1.309-3.725L340.351,67.27z M328.384,61.829c-0.723,0.617-1.521,1.16-2.394,1.627
	s-1.596,0.805-2.167,1.016l0.677-2.529v0.045c0.06-0.211,0.188-0.526,0.384-0.947c0.195-0.422,0.437-0.865,0.723-1.332
	s0.609-0.919,0.971-1.355s0.73-0.775,1.106-1.016c0.376-0.241,0.753-0.339,1.129-0.294c0.376,0.046,0.729,0.309,1.062,0.79
	c0.451,0.662,0.496,1.34,0.135,2.032S329.107,61.211,328.384,61.829z M154.907,45.063c0.587-0.934,1.053-1.919,1.399-2.958
	c0.346-1.038,0.572-2.032,0.678-2.98s0.098-1.807-0.022-2.574c-0.121-0.768-0.332-1.362-0.632-1.784l-0.768,0.137
	c-0.903,1.926-1.972,3.311-3.207,4.154c-1.234,0.843-2.574,1.385-4.019,1.625c-1.295,0.181-2.657,0.196-4.087,0.046
	s-2.867-0.316-4.312-0.497c-1.445-0.181-2.89-0.316-4.335-0.406c-1.445-0.091-2.83,0.03-4.154,0.361
	c-0.903,0.241-1.754,0.632-2.552,1.174s-1.467,1.197-2.009,1.965s-0.934,1.603-1.174,2.506s-0.241,1.821,0,2.754l0.632,0.045
	c0.12-1.053,0.414-1.873,0.88-2.46s1.016-1.046,1.648-1.378c0.963-0.512,2.01-0.67,3.139-0.474s2.205,0.624,3.229,1.286
	c1.535,1.024,2.987,1.838,4.357,2.439c1.37,0.602,2.657,1.039,3.861,1.309c1.204,0.271,2.31,0.393,3.319,0.361
	c1.009-0.029,1.95-0.18,2.823-0.451c1.174-0.361,2.205-0.918,3.093-1.671S154.32,45.997,154.907,45.063z M231.947,55.361
	c-0.753-0.617-1.604-1.084-2.551-1.4c-0.949-0.316-1.92-0.475-2.913-0.475c-1.385,0-2.694,0.241-3.929,0.724
	c-1.234,0.481-2.228,1.151-2.98,2.01c-0.752,0.858-1.189,1.867-1.309,3.026c-0.121,1.159,0.256,2.417,1.129,3.772
	c0.602,0.903,1.203,1.852,1.806,2.846s1.204,1.912,1.806,2.756h-0.045c0.723,1.084,1.068,1.988,1.039,2.711
	c-0.031,0.723-0.301,1.265-0.813,1.626c-0.422,0.302-0.964,0.437-1.626,0.407c-0.663-0.031-1.302-0.256-1.919-0.678
	s-1.152-1.063-1.604-1.92c-0.359-0.686-0.57-1.534-0.644-2.535c0.079-0.282,0.157-0.567,0.23-0.871l-0.587-0.09
	c-0.023,0.074-0.062,0.168-0.09,0.248l-0.355,0.063c0,0.261,0.015,0.504,0.028,0.749c-0.058,0.129-0.104,0.245-0.171,0.385
	c-0.271,0.572-0.594,1.099-0.971,1.58c-0.376,0.481-0.805,0.865-1.287,1.151c-0.48,0.286-0.992,0.354-1.535,0.203
	c-0.422-0.12-0.79-0.496-1.105-1.129c-0.316-0.631-0.686-1.331-1.107-2.099c-0.421-0.768-0.955-1.497-1.603-2.189
	s-1.528-1.159-2.642-1.399c0.844,0,1.821-0.158,2.936-0.475c1.113-0.315,2.152-0.768,3.115-1.354
	c0.963-0.588,1.738-1.316,2.326-2.189c0.586-0.873,0.76-1.866,0.52-2.98c-0.242-1.083-0.769-1.865-1.581-2.348
	c-0.813-0.48-1.716-0.842-2.71-1.084c-0.632-0.119-1.309-0.165-2.031-0.135s-1.468,0.181-2.235,0.451
	c-0.768,0.271-1.513,0.67-2.235,1.197c-0.723,0.526-1.4,1.227-2.031,2.1l2.664-9.797c0.24-0.902,0.354-1.836,0.338-2.799
	s-0.188-1.843-0.52-2.641c-0.33-0.798-0.85-1.452-1.558-1.964s-1.618-0.768-2.731-0.768c-0.753,0-1.535,0.136-2.348,0.406
	c-0.813,0.271-1.536,0.632-2.168,1.083l0.18,0.361c0.543-0.12,0.918,0.061,1.129,0.542c0.121,0.241,0.188,0.558,0.203,0.948
	c0.016,0.391,0.008,0.797-0.021,1.219c-0.031,0.422-0.076,0.828-0.136,1.219c-0.061,0.392-0.136,0.723-0.226,0.993l-5.473,20.376
	l-0.041-0.008c-0.12,0.421-0.316,0.918-0.587,1.49s-0.603,1.105-0.993,1.603c-0.392,0.497-0.82,0.888-1.287,1.175
	c-0.467,0.285-0.971,0.354-1.513,0.202c-0.422-0.12-0.73-0.347-0.926-0.677c-0.196-0.332-0.309-0.7-0.339-1.106
	s-0.008-0.82,0.068-1.242c0.074-0.421,0.157-0.798,0.248-1.129l5.148-19.327c0.24-0.902,0.353-1.828,0.338-2.777
	c-0.016-0.947-0.188-1.82-0.52-2.618s-0.851-1.453-1.558-1.965c-0.708-0.512-1.618-0.768-2.731-0.768
	c-0.754-0.03-1.536,0.091-2.349,0.361c-0.813,0.271-1.536,0.647-2.167,1.129l0.18,0.361c0.512-0.12,0.889,0.045,1.129,0.496
	c0.121,0.241,0.188,0.558,0.203,0.949c0.016,0.392,0.008,0.798-0.022,1.22c-0.03,0.421-0.075,0.835-0.136,1.241
	c-0.06,0.406-0.135,0.745-0.225,1.016l-5.193,19.688c-0.181,0.662-0.301,1.34-0.361,2.031c-0.061,0.693-0.061,1.385,0,2.078
	c0.181,1.324,0.752,2.393,1.716,3.205c0.964,0.813,2.408,1.234,4.335,1.266c1.023,0.029,1.973-0.076,2.846-0.316
	s1.662-0.662,2.37-1.265c0.643-0.548,1.22-1.264,1.738-2.134c0.003,0.029,0.001,0.063,0.004,0.093
	c0.091,0.873,0.347,1.573,0.769,2.099c0.421,0.527,0.992,0.904,1.715,1.129c0.723,0.227,1.535,0.354,2.439,0.384
	c0.571,0.03,1.143,0.022,1.715-0.021c0.572-0.045,1.174-0.11,1.807-0.198l0.181-0.723c-0.632-0.692-0.934-1.393-0.903-2.101
	s0.121-1.318,0.271-1.83l1.129-4.292c0.902,0.512,1.603,1.084,2.1,1.716c0.496,0.632,0.91,1.294,1.242,1.986
	c0.33,0.692,0.625,1.361,0.881,2.009s0.594,1.226,1.016,1.737c0.421,0.512,0.971,0.926,1.648,1.242
	c0.677,0.316,1.603,0.474,2.776,0.474c0.933,0,1.799-0.12,2.597-0.36c0.798-0.241,1.527-0.662,2.189-1.265
	c0.662-0.602,1.25-1.392,1.762-2.37c0.184-0.351,0.354-0.748,0.518-1.166c0.097,0.434,0.213,0.844,0.369,1.209
	c0.406,0.948,0.941,1.717,1.604,2.303c0.662,0.588,1.43,1.01,2.303,1.266s1.776,0.384,2.71,0.384c1.385,0,2.717-0.218,3.996-0.655
	c1.279-0.436,2.325-1.054,3.139-1.852c0.813-0.799,1.294-1.747,1.444-2.846c0.15-1.1-0.195-2.313-1.038-3.637
	c-0.542-0.873-1.144-1.838-1.806-2.892c-0.663-1.054-1.25-1.973-1.762-2.756c-0.753-1.054-1.121-2.011-1.106-2.868
	c0.015-0.859,0.278-1.484,0.79-1.875c0.422-0.332,0.971-0.467,1.648-0.406s1.348,0.301,2.01,0.723s1.249,1.023,1.761,1.807
	s0.843,1.731,0.993,2.846l0.588-0.181c0-1.084-0.234-2.056-0.701-2.913C233.308,56.715,232.699,55.978,231.947,55.361z
	 M205.072,61.829c-0.723,0.617-1.52,1.16-2.393,1.627s-1.596,0.805-2.168,1.016l0.678-2.529v0.045
	c0.06-0.211,0.188-0.526,0.383-0.947c0.195-0.422,0.438-0.865,0.723-1.332c0.287-0.467,0.609-0.919,0.971-1.355
	s0.73-0.775,1.107-1.016c0.375-0.241,0.752-0.339,1.129-0.294c0.375,0.046,0.729,0.309,1.061,0.79
	c0.451,0.662,0.497,1.34,0.136,2.032S205.794,61.211,205.072,61.829z M289.804,59.684l-0.768-0.315
	c-0.572,1.325-1.271,2.491-2.1,3.499c-0.828,1.01-1.904,1.693-3.229,2.055c0.12-1.144,0.067-2.28-0.158-3.409
	s-0.646-2.167-1.264-3.116c-0.617-0.947-1.453-1.768-2.506-2.461c-1.055-0.691-2.318-1.174-3.794-1.444
	c-1.837-0.331-3.515-0.308-5.034,0.067c-1.521,0.377-2.854,0.994-3.997,1.852c-1.144,0.858-2.1,1.896-2.867,3.116
	s-1.317,2.506-1.648,3.86c-0.301,1.355-0.376,2.71-0.226,4.064s0.572,2.582,1.264,3.68c0.693,1.1,1.671,2.01,2.936,2.732
	s2.86,1.145,4.787,1.264h-0.045c1.654,0.092,3.168-0.082,4.537-0.519c1.37-0.437,2.574-1.068,3.613-1.896
	c1.038-0.828,1.911-1.792,2.619-2.89c0.707-1.1,1.211-2.266,1.513-3.5c0.873-0.181,1.633-0.489,2.28-0.926
	c0.646-0.437,1.219-0.948,1.716-1.535s0.933-1.242,1.31-1.965C289.12,61.174,289.474,60.438,289.804,59.684z M274.767,68.4
	c-0.391,1.023-0.813,1.911-1.264,2.664s-0.926,1.333-1.422,1.739c-0.498,0.406-0.972,0.549-1.423,0.428
	c-0.422-0.119-0.737-0.459-0.948-1.016s-0.332-1.249-0.361-2.077c-0.031-0.827,0.029-1.753,0.18-2.776s0.361-2.063,0.633-3.116
	c0.392-1.505,0.865-2.92,1.422-4.245c0.557-1.324,1.152-2.378,1.785-3.16c-0.693,1.807-0.769,3.447-0.227,4.922
	s1.43,2.634,2.664,3.477C275.505,66.323,275.16,67.376,274.767,68.4z M276.755,60.045c-0.061,0.512-0.137,1.092-0.227,1.739
	s-0.226,1.362-0.406,2.145c-0.692-0.602-1.174-1.264-1.445-1.986s-0.406-1.431-0.406-2.123c0-0.872,0.166-1.64,0.496-2.303
	c0.332-0.662,0.693-1.023,1.084-1.084c0.332-0.03,0.602,0.219,0.813,0.745C276.875,57.706,276.906,58.661,276.755,60.045z
	 M316.138,59.684l-0.768-0.315c-0.572,1.325-1.271,2.491-2.1,3.499c-0.828,1.01-1.904,1.693-3.229,2.055
	c0.12-1.144,0.067-2.28-0.158-3.409s-0.646-2.167-1.264-3.116c-0.617-0.947-1.453-1.768-2.506-2.461
	c-1.055-0.691-2.318-1.174-3.794-1.444c-1.837-0.331-3.515-0.308-5.034,0.067c-1.521,0.377-2.854,0.994-3.997,1.852
	c-1.144,0.858-2.1,1.896-2.867,3.116s-1.317,2.506-1.648,3.86c-0.301,1.355-0.376,2.71-0.226,4.064s0.572,2.582,1.264,3.68
	c0.693,1.1,1.671,2.01,2.936,2.732s2.86,1.145,4.787,1.264h-0.045c1.654,0.092,3.168-0.082,4.537-0.519
	c1.37-0.437,2.574-1.068,3.613-1.896c1.038-0.828,1.911-1.792,2.619-2.89c0.707-1.1,1.211-2.266,1.513-3.5
	c0.873-0.181,1.633-0.489,2.28-0.926c0.646-0.437,1.219-0.948,1.716-1.535s0.933-1.242,1.31-1.965
	C315.454,61.174,315.808,60.438,316.138,59.684z M301.101,68.4c-0.391,1.023-0.813,1.911-1.264,2.664s-0.926,1.333-1.422,1.739
	c-0.498,0.406-0.972,0.549-1.423,0.428c-0.422-0.119-0.737-0.459-0.948-1.016s-0.332-1.249-0.361-2.077
	c-0.031-0.827,0.029-1.753,0.18-2.776s0.361-2.063,0.633-3.116c0.392-1.505,0.865-2.92,1.422-4.245
	c0.557-1.324,1.152-2.378,1.785-3.16c-0.693,1.807-0.769,3.447-0.227,4.922s1.43,2.634,2.664,3.477
	C301.839,66.323,301.494,67.376,301.101,68.4z M303.089,60.045c-0.061,0.512-0.137,1.092-0.227,1.739s-0.226,1.362-0.406,2.145
	c-0.692-0.602-1.174-1.264-1.445-1.986s-0.406-1.431-0.406-2.123c0-0.872,0.166-1.64,0.496-2.303
	c0.332-0.662,0.693-1.023,1.084-1.084c0.332-0.03,0.602,0.219,0.813,0.745C303.208,57.706,303.24,58.661,303.089,60.045z
	 M179.412,59.684l-0.768-0.315c-0.572,1.325-1.271,2.491-2.1,3.499c-0.828,1.01-1.904,1.693-3.229,2.055
	c0.119-1.144,0.066-2.28-0.158-3.409c-0.227-1.129-0.647-2.167-1.265-3.116c-0.617-0.947-1.452-1.768-2.506-2.461
	c-1.054-0.691-2.318-1.174-3.794-1.444c-1.836-0.331-3.514-0.308-5.034,0.067c-1.521,0.377-2.853,0.994-3.997,1.852
	c-1.144,0.858-2.1,1.896-2.867,3.116s-1.317,2.506-1.648,3.86c-0.301,1.355-0.376,2.71-0.226,4.064s0.572,2.582,1.264,3.68
	c0.692,1.1,1.67,2.01,2.935,2.732s2.86,1.145,4.788,1.264h-0.046c1.655,0.092,3.168-0.082,4.538-0.519
	c1.369-0.437,2.574-1.068,3.612-1.896s1.911-1.792,2.619-2.89c0.708-1.1,1.212-2.266,1.513-3.5c0.873-0.181,1.633-0.489,2.281-0.926
	c0.646-0.437,1.219-0.948,1.715-1.535c0.497-0.587,0.934-1.242,1.311-1.965C178.726,61.174,179.081,60.438,179.412,59.684z
	 M164.375,68.4c-0.392,1.023-0.813,1.911-1.264,2.664c-0.452,0.753-0.926,1.333-1.423,1.739s-0.972,0.549-1.423,0.428
	c-0.422-0.119-0.737-0.459-0.948-1.016s-0.331-1.249-0.361-2.077c-0.03-0.827,0.03-1.753,0.181-2.776s0.361-2.063,0.633-3.116
	c0.391-1.505,0.865-2.92,1.422-4.245c0.557-1.324,1.151-2.378,1.784-3.16c-0.692,1.807-0.769,3.447-0.226,4.922
	c0.541,1.475,1.43,2.634,2.664,3.477C165.113,66.323,164.766,67.376,164.375,68.4z M166.362,60.045
	c-0.061,0.512-0.136,1.092-0.226,1.739c-0.091,0.647-0.227,1.362-0.406,2.145c-0.693-0.602-1.175-1.264-1.445-1.986
	c-0.271-0.723-0.406-1.431-0.406-2.123c0-0.872,0.165-1.64,0.496-2.303c0.331-0.662,0.692-1.023,1.084-1.084
	c0.331-0.03,0.602,0.219,0.813,0.745C166.482,57.706,166.512,58.661,166.362,60.045z M263.517,59.729l-0.994-0.271
	c-0.512,1.476-1.249,2.611-2.213,3.409c-0.963,0.798-1.836,1.258-2.619,1.377c0.271-0.992,0.369-2.068,0.294-3.227
	c-0.075-1.159-0.368-2.242-0.88-3.251c-0.512-1.008-1.258-1.851-2.236-2.528c-0.979-0.677-2.25-1.016-3.814-1.016
	c-1.023,0-1.995,0.195-2.913,0.587c-0.919,0.392-1.634,0.993-2.146,1.806h-0.045l2.303-8.396c0.241-0.902,0.354-1.836,0.339-2.799
	s-0.188-1.844-0.519-2.641c-0.332-0.798-0.852-1.452-1.559-1.964s-1.618-0.768-2.731-0.768c-0.753,0-1.536,0.136-2.349,0.406
	s-1.535,0.632-2.167,1.083l0.181,0.361c0.541-0.12,0.918,0.061,1.129,0.542c0.12,0.241,0.188,0.558,0.203,0.948
	c0.015,0.391,0.008,0.797-0.023,1.219c-0.029,0.422-0.074,0.828-0.135,1.219c-0.061,0.392-0.136,0.723-0.226,0.993l-5.284,19.683
	c-0.42,1.596-0.405,2.935,0.046,4.018c0.451,1.084,1.144,1.965,2.077,2.641c0.934,0.678,2.039,1.167,3.318,1.468
	s2.552,0.451,3.816,0.451c3.643,0,6.502-0.752,8.58-2.257c2.076-1.505,3.521-3.807,4.334-6.907c0.572-0.15,1.167-0.376,1.784-0.677
	s1.212-0.693,1.784-1.174c0.571-0.482,1.09-1.076,1.557-1.784S263.246,60.723,263.517,59.729z M248.277,67.813
	c-0.347,0.754-0.596,1.28-0.746,1.581c-0.18,0.392-0.421,0.768-0.722,1.129c-0.302,0.361-0.618,0.67-0.948,0.926
	c-0.332,0.256-0.678,0.452-1.039,0.587c-0.361,0.136-0.692,0.158-0.993,0.068c-0.422-0.121-0.73-0.347-0.926-0.678
	c-0.196-0.331-0.309-0.699-0.339-1.105s-0.008-0.828,0.068-1.266c0.074-0.436,0.158-0.82,0.248-1.151l2.077-7.36
	c0.12,1.204,0.481,2.235,1.083,3.094c0.603,0.857,1.596,1.498,2.98,1.918C248.871,66.309,248.623,67.061,248.277,67.813z
	 M250.241,59.278c-0.061,0.964-0.166,1.807-0.316,2.529s-0.301,1.43-0.451,2.122c-0.512-0.181-0.94-0.459-1.287-0.835
	c-0.347-0.377-0.617-0.783-0.813-1.22c-0.196-0.437-0.331-0.873-0.407-1.31c-0.074-0.437-0.112-0.82-0.112-1.151
	c0-0.241,0.038-0.579,0.112-1.017c0.076-0.436,0.196-0.865,0.361-1.286c0.166-0.421,0.399-0.774,0.701-1.062
	c0.301-0.285,0.677-0.398,1.129-0.338c0.541,0.061,0.879,0.451,1.016,1.174C250.308,57.608,250.332,58.405,250.241,59.278z"/>
</svg>
